<?xml version="1.0" encoding="UTF-8"?> <svg xmlns="http://www.w3.org/2000/svg" xmlns:xlink="http://www.w3.org/1999/xlink" width="1280" height="720" overflow=""><defs><clipPath id="clip0"><rect x="0" y="0" width="1280" height="720"></rect></clipPath><clipPath id="clip1"><rect x="33" y="17" width="1144" height="685"></rect></clipPath><clipPath id="clip2"><rect x="89" y="79" width="1074" height="574"></rect></clipPath><clipPath id="clip3"><rect x="89" y="79" width="1074" height="574"></rect></clipPath><clipPath id="clip4"><rect x="89" y="79" width="1074" height="574"></rect></clipPath><clipPath id="clip5"><rect x="89" y="79" width="1074" height="574"></rect></clipPath><clipPath id="clip6"><rect x="33" y="17" width="1144" height="685"></rect></clipPath><clipPath id="clip7"><rect x="33" y="17" width="1144" height="685"></rect></clipPath><clipPath id="clip8"><rect x="33" y="17" width="1144" height="685"></rect></clipPath><clipPath id="clip9"><rect x="33" y="17" width="1144" height="685"></rect></clipPath><clipPath id="clip10"><rect x="33" y="17" width="1144" height="685"></rect></clipPath><clipPath id="clip11"><rect x="33" y="17" width="1144" height="685"></rect></clipPath><clipPath id="clip12"><rect x="33" y="17" width="1144" height="685"></rect></clipPath><clipPath id="clip13"><rect x="33" y="17" width="1144" height="685"></rect></clipPath><clipPath id="clip14"><rect x="33" y="17" width="1144" height="685"></rect></clipPath><clipPath id="clip15"><rect x="33" y="17" width="1144" height="685"></rect></clipPath><clipPath id="clip16"><rect x="33" y="17" width="1144" height="685"></rect></clipPath><clipPath id="clip17"><rect x="33" y="17" width="1144" height="685"></rect></clipPath><clipPath id="clip18"><rect x="33" y="17" width="1144" height="685"></rect></clipPath><clipPath id="clip19"><rect x="33" y="17" width="1144" height="685"></rect></clipPath><clipPath id="clip20"><rect x="33" y="17" width="1144" height="685"></rect></clipPath><clipPath id="clip21"><rect x="33" y="17" width="1144" height="685"></rect></clipPath><clipPath id="clip22"><rect x="33" y="17" width="1144" height="685"></rect></clipPath><clipPath id="clip23"><rect x="33" y="17" width="1144" height="685"></rect></clipPath><clipPath id="clip24"><rect x="33" y="17" width="1144" height="685"></rect></clipPath></defs><g clip-path="url(#clip0)"><rect x="0" y="0" width="1280" height="720" fill="#FFFFFF"></rect><g clip-path="url(#clip1)"><path d="M89.5001 538.5 1162.5 538.5M89.5001 423.5 1162.5 423.5M89.5001 309.5 1162.5 309.5M89.5001 194.5 1162.5 194.5M89.5001 79.5001 1162.5 79.5001" stroke="#D9D9D9" stroke-linejoin="round" stroke-miterlimit="10" fill="none"></path></g><g clip-path="url(#clip2)"><path d="M132 275 170 275 170 653 132 653ZM400 217 438 217 438 653 400 653ZM668 298 707 298 707 653 668 653ZM936 149 975 149 975 653 936 653Z" fill="#12436D"></path></g><g clip-path="url(#clip3)"><path d="M180 309 219 309 219 653 180 653ZM449 366 487 366 487 653 449 653ZM717 424 755 424 755 653 717 653ZM985 366 1023 366 1023 653 985 653Z" fill="#28A197"></path></g><g clip-path="url(#clip4)"><path d="M229 412 267 412 267 653 229 653ZM497 447 536 447 536 653 497 653ZM766 447 804 447 804 653 766 653ZM1034 435 1072 435 1072 653 1034 653Z" fill="#801650"></path></g><g clip-path="url(#clip5)"><path d="M278 538 316 538 316 653 278 653ZM546 538 584 538 584 653 546 653ZM814 538 853 538 853 653 814 653ZM1083 538 1121 538 1121 653 1083 653Z" fill="#F46A25"></path></g><g clip-path="url(#clip6)"><path d="M89.5001 652.5 1162.5 652.5" stroke="#D9D9D9" stroke-linejoin="round" stroke-miterlimit="10" fill="none" fill-rule="evenodd"></path></g><g clip-path="url(#clip7)"><text fill="#404040" font-family="Arial,Arial_MSFontService,sans-serif" font-weight="400" font-size="24" transform="translate(55.707 661)">0</text></g><g clip-path="url(#clip8)"><text fill="#404040" font-family="Arial,Arial_MSFontService,sans-serif" font-weight="400" font-size="24" transform="translate(42.3603 546)">10</text></g><g clip-path="url(#clip9)"><text fill="#404040" font-family="Arial,Arial_MSFontService,sans-serif" font-weight="400" font-size="24" transform="translate(42.3603 432)">20</text></g><g clip-path="url(#clip10)"><text fill="#404040" font-family="Arial,Arial_MSFontService,sans-serif" font-weight="400" font-size="24" transform="translate(42.3603 317)">30</text></g><g clip-path="url(#clip11)"><text fill="#404040" font-family="Arial,Arial_MSFontService,sans-serif" font-weight="400" font-size="24" transform="translate(42.3603 202)">40</text></g><g clip-path="url(#clip12)"><text fill="#404040" font-family="Arial,Arial_MSFontService,sans-serif" font-weight="400" font-size="24" transform="translate(42.3603 88)">50</text></g><g clip-path="url(#clip13)"><text fill="#404040" font-family="Arial,Arial_MSFontService,sans-serif" font-weight="400" font-size="24" transform="translate(182.477 689)">Shop 1</text></g><g clip-path="url(#clip14)"><text fill="#404040" font-family="Arial,Arial_MSFontService,sans-serif" font-weight="400" font-size="24" transform="translate(454.085 689)">Shop 2</text></g><g clip-path="url(#clip15)"><text fill="#404040" font-family="Arial,Arial_MSFontService,sans-serif" font-weight="400" font-size="24" transform="translate(722.36 689)">Shop 3</text></g><g clip-path="url(#clip16)"><text fill="#404040" font-family="Arial,Arial_MSFontService,sans-serif" font-weight="400" font-size="24" transform="translate(990.635 689)">Shop 4</text></g><g clip-path="url(#clip17)"><rect x="61" y="36" width="12" height="12" fill="#12436D"></rect></g><g clip-path="url(#clip18)"><text font-family="Arial,Arial_MSFontService,sans-serif" font-weight="400" font-size="24" transform="translate(78.6307 50)">Apples</text></g><g clip-path="url(#clip19)"><rect x="178" y="36" width="12" height="12" fill="#28A197"></rect></g><g clip-path="url(#clip20)"><text font-family="Arial,Arial_MSFontService,sans-serif" font-weight="400" font-size="24" transform="translate(195.448 50)">Bananas</text></g><g clip-path="url(#clip21)"><rect x="316" y="36" width="12" height="12" fill="#801650"></rect></g><g clip-path="url(#clip22)"><text font-family="Arial,Arial_MSFontService,sans-serif" font-weight="400" font-size="24" transform="translate(333.625 50)">Pears</text></g><g clip-path="url(#clip23)"><rect x="422" y="36" width="12" height="12" fill="#F46A25"></rect></g><g clip-path="url(#clip24)"><text font-family="Arial,Arial_MSFontService,sans-serif" font-weight="400" font-size="24" transform="translate(439.755 50)">Pineapples</text></g></g></svg> 